<svg width="225" height="225" viewBox="0 0 225 225" fill="none" xmlns="http://www.w3.org/2000/svg">
<mask id="mask0_11_20" style="mask-type:alpha" maskUnits="userSpaceOnUse" x="7" y="67" width="211" height="91">
<path d="M42.615 157.656C39.159 157.656 36.055 156.92 33.303 155.448C30.615 153.976 28.535 151.896 27.063 149.208C25.655 146.584 25.079 143.48 25.335 139.896L26.295 125.976C26.423 123.928 25.847 122.296 24.567 121.08C23.287 119.864 21.623 119.256 19.575 119.256H7.575V105.816H19.575C21.623 105.816 23.287 105.208 24.567 103.992C25.847 102.712 26.423 101.08 26.295 99.096L25.335 84.6C25.143 81.08 25.751 78.04 27.159 75.48C28.567 72.856 30.615 70.84 33.303 69.432C35.991 68.024 39.095 67.32 42.615 67.32H50.775V80.76H45.495C43.703 80.76 42.263 81.208 41.175 82.104C40.087 83 39.607 84.472 39.735 86.52L40.695 101.016C40.951 104.536 39.703 107.384 36.951 109.56C34.263 111.672 30.551 112.728 25.815 112.728V112.056C30.551 112.056 34.263 113.176 36.951 115.416C39.703 117.592 40.951 120.472 40.695 124.056L39.735 138.456C39.671 140.184 40.183 141.592 41.271 142.68C42.359 143.704 43.767 144.216 45.495 144.216H50.775V157.656H42.615ZM84.7375 147.96C80.0655 147.96 76.0015 147.096 72.5455 145.368C69.0895 143.576 66.4015 141.112 64.4815 137.976C62.6255 134.776 61.6975 131.064 61.6975 126.84V97.08C61.6975 92.856 62.6255 89.176 64.4815 86.04C66.4015 82.84 69.0895 80.376 72.5455 78.648C76.0015 76.856 80.0655 75.96 84.7375 75.96C89.4735 75.96 93.5375 76.856 96.9295 78.648C100.386 80.376 103.042 82.84 104.898 86.04C106.818 89.176 107.778 92.856 107.778 97.08V126.84C107.778 131.064 106.818 134.776 104.898 137.976C103.042 141.112 100.386 143.576 96.9295 145.368C93.5375 147.096 89.4735 147.96 84.7375 147.96ZM84.7375 135.48C87.6175 135.48 89.7615 134.744 91.1695 133.272C92.6415 131.736 93.3775 129.592 93.3775 126.84V97.08C93.3775 94.264 92.6735 92.12 91.2655 90.648C89.8575 89.176 87.6815 88.44 84.7375 88.44C81.7935 88.44 79.6175 89.176 78.2095 90.648C76.8015 92.12 76.0975 94.264 76.0975 97.08V126.84C76.0975 129.592 76.8015 131.736 78.2095 133.272C79.6815 134.744 81.8575 135.48 84.7375 135.48ZM119.18 147V76.92H162.38V89.208H133.292V104.952H159.02V117.24H133.292V134.712H162.38V147H119.18ZM174.263 157.656V144.216H179.543C181.271 144.216 182.679 143.704 183.767 142.68C184.919 141.592 185.431 140.184 185.303 138.456L184.343 124.056C184.087 120.472 185.335 117.592 188.087 115.416C190.839 113.176 194.551 112.056 199.223 112.056V112.728C194.551 112.728 190.839 111.672 188.087 109.56C185.335 107.384 184.087 104.536 184.343 101.016L185.303 86.52C185.431 84.472 184.951 83 183.863 82.104C182.839 81.208 181.399 80.76 179.543 80.76H174.263V67.32H182.423C185.943 67.32 189.047 68.024 191.734 69.432C194.423 70.84 196.471 72.856 197.879 75.48C199.351 78.04 199.959 81.08 199.703 84.6L198.743 99.096C198.615 101.08 199.191 102.712 200.471 103.992C201.815 105.208 203.479 105.816 205.463 105.816H217.463V119.256H205.463C203.479 119.256 201.815 119.864 200.471 121.08C199.191 122.296 198.615 123.928 198.743 125.976L199.703 139.896C199.959 143.48 199.351 146.584 197.879 149.208C196.471 151.896 194.423 153.976 191.734 155.448C189.047 156.92 185.943 157.656 182.423 157.656H174.263Z" fill="black"/>
</mask>
<g mask="url(#mask0_11_20)">
<rect x="12" y="49" width="44" height="132" fill="#475569"/>
<rect x="170" y="49" width="44" height="132" fill="#475569"/>
<rect x="56" y="49" width="114" height="63" fill="#F97316"/>
<rect x="56" y="112" width="114" height="69" fill="#06B6D4"/>
</g>
</svg>
